# Exported OBJ from Prisma3D Exporter v2019
g name0
v -6.946614E-08 0.3 0.7946
v -0.5619001 0.3 0.5619
v -0.3536 0.6 0.3536
v -0.3536 0.6 0.3536
v -4.371139E-08 0.6 0.5
v -6.946614E-08 0.3 0.7946
v -0.5619001 0.3 0.5619
v -0.7946 0.3 -6.946614E-08
v -0.5 0.6 -4.371139E-08
v -0.5 0.6 -4.371139E-08
v -0.3536 0.6 0.3536
v -0.5619001 0.3 0.5619
v -0.7946 0.3 -6.946614E-08
v -0.5619 0.3 -0.5619001
v -0.3536 0.6 -0.3536
v -0.3536 0.6 -0.3536
v -0.5 0.6 -4.371139E-08
v -0.7946 0.3 -6.946614E-08
v -0.5619 0.3 -0.5619001
v 6.946614E-08 0.3 -0.7946
v 4.371139E-08 0.6 -0.5
v 4.371139E-08 0.6 -0.5
v -0.3536 0.6 -0.3536
v -0.5619 0.3 -0.5619001
v 6.946614E-08 0.3 -0.7946
v 0.5619001 0.3 -0.5619
v 0.3536 0.6 -0.3536
v 0.3536 0.6 -0.3536
v 4.371139E-08 0.6 -0.5
v 6.946614E-08 0.3 -0.7946
v 0.5619001 0.3 -0.5619
v 0.7946 0.3 6.946614E-08
v 0.5 0.6 4.371139E-08
v 0.5 0.6 4.371139E-08
v 0.3536 0.6 -0.3536
v 0.5619001 0.3 -0.5619
v 0.3536 0.6 0.3536
v 0.5 0.6 4.371139E-08
v 0.7946 0.3 6.946614E-08
v 0 -0.4 0
v -0.5619001 0.3 0.5619
v -6.946614E-08 0.3 0.7946
v 0 -0.4 0
v -0.7946 0.3 -6.946614E-08
v -0.5619001 0.3 0.5619
v 0 -0.4 0
v -0.5619 0.3 -0.5619001
v -0.7946 0.3 -6.946614E-08
v 0 -0.4 0
v 6.946614E-08 0.3 -0.7946
v -0.5619 0.3 -0.5619001
v 0 -0.4 0
v 0.5619001 0.3 -0.5619
v 6.946614E-08 0.3 -0.7946
v 0 -0.4 0
v 0.7946 0.3 6.946614E-08
v 0.5619001 0.3 -0.5619
v -0.3536 0.6 0.3536
v 0.3536 0.6 0.3536
v -4.371139E-08 0.6 0.5
v -0.3536 0.6 0.3536
v 0.5 0.6 4.371139E-08
v 0.3536 0.6 0.3536
v -0.5 0.6 -4.371139E-08
v 0.5 0.6 4.371139E-08
v -0.3536 0.6 0.3536
v -0.5 0.6 -4.371139E-08
v 0.3536 0.6 -0.3536
v 0.5 0.6 4.371139E-08
v -0.3536 0.6 -0.3536
v 0.3536 0.6 -0.3536
v -0.5 0.6 -4.371139E-08
v 0.3536 0.6 -0.3536
v -0.3536 0.6 -0.3536
v 4.371139E-08 0.6 -0.5
v 0 -0.4 0
v -6.946614E-08 0.3 0.7946
v 0.5619 0.3 0.5619001
v 0 -0.4 0
v 0.5619 0.3 0.5619001
v 0.7946 0.3 6.946614E-08
v 0.7946 0.3 6.946614E-08
v 0.5619 0.3 0.5619001
v 0.3536 0.6 0.3536
v -4.371139E-08 0.6 0.5
v 0.3536 0.6 0.3536
v 0.5619 0.3 0.5619001
v 0.5619 0.3 0.5619001
v -6.946614E-08 0.3 0.7946
v -4.371139E-08 0.6 0.5
vn -0.05658169 0.4025683 0.4099642
vn -0.3299244 0.4025687 0.2498432
vn -0.2498507 0.4025747 0.3299114
vn -0.2498507 0.4025747 0.3299114
vn -0.1635663 0.3879506 0.3950617
vn -0.05658169 0.4025683 0.4099642
vn -0.3299244 0.4025687 0.2498432
vn -0.4099642 0.4025682 -0.05658169
vn -0.4099681 0.4025623 0.05659601
vn -0.4099681 0.4025623 0.05659601
vn -0.2498507 0.4025747 0.3299114
vn -0.3299244 0.4025687 0.2498432
vn -0.4099642 0.4025682 -0.05658169
vn -0.2498432 0.4025687 -0.3299244
vn -0.3299114 0.4025747 -0.2498507
vn -0.3299114 0.4025747 -0.2498507
vn -0.4099681 0.4025623 0.05659601
vn -0.4099642 0.4025682 -0.05658169
vn -0.2498432 0.4025687 -0.3299244
vn 0.05658169 0.4025683 -0.4099642
vn -0.05659601 0.4025623 -0.4099681
vn -0.05659601 0.4025623 -0.4099681
vn -0.3299114 0.4025747 -0.2498507
vn -0.2498432 0.4025687 -0.3299244
vn 0.05658169 0.4025683 -0.4099642
vn 0.3299244 0.4025687 -0.2498432
vn 0.2498507 0.4025747 -0.3299114
vn 0.2498507 0.4025747 -0.3299114
vn -0.05659601 0.4025623 -0.4099681
vn 0.05658169 0.4025683 -0.4099642
vn 0.3299244 0.4025687 -0.2498432
vn 0.4119389 0.404524 -1.95474E-05
vn 0.4099681 0.4025623 -0.05659601
vn 0.4099681 0.4025623 -0.05659601
vn 0.2498507 0.4025747 -0.3299114
vn 0.3299244 0.4025687 -0.2498432
vn 0.3299114 0.4025747 0.2498507
vn 0.4099681 0.4025623 -0.05659601
vn 0.4119389 0.404524 -1.95474E-05
vn -0.2698547 -0.4332323 0.2698546
vn -0.2698547 -0.4332323 0.2698546
vn -3.567891E-08 -0.4332212 0.3816447
vn -0.2698547 -0.4332323 0.2698546
vn -0.3816447 -0.4332212 -4.459864E-08
vn -0.2698547 -0.4332323 0.2698546
vn -0.2698546 -0.4332323 -0.2698547
vn -0.2698546 -0.4332323 -0.2698547
vn -0.3816447 -0.4332212 -4.459864E-08
vn -0.2698546 -0.4332323 -0.2698547
vn 3.567891E-08 -0.4332212 -0.3816447
vn -0.2698546 -0.4332323 -0.2698547
vn 0.2698547 -0.4332323 -0.2698546
vn 0.2698547 -0.4332323 -0.2698546
vn 3.567891E-08 -0.4332212 -0.3816447
vn 0.2698547 -0.4332323 -0.2698546
vn 0.3816447 -0.4332212 4.459864E-08
vn 0.2698547 -0.4332323 -0.2698546
vn 0 0.5773503 0
vn 0 0.5773503 0
vn 0 0.5773503 0
vn 0 0.5773503 0
vn 0 0.5773503 0
vn 0 0.5773503 0
vn 0 0.5773503 0
vn 0 0.5773503 0
vn 0 0.5773503 0
vn 0 0.5773503 0
vn 0 0.5773503 0
vn 0 0.5773503 0
vn 0 0.5773503 0
vn 0 0.5773503 0
vn 0 0.5773503 0
vn 0 0.5773503 0
vn 0 0.5773503 0
vn 0 0.5773503 0
vn 0.2698546 -0.4332323 0.2698547
vn -3.567891E-08 -0.4332212 0.3816447
vn 0.2698546 -0.4332323 0.2698547
vn 0.2698546 -0.4332323 0.2698547
vn 0.2698546 -0.4332323 0.2698547
vn 0.3816447 -0.4332212 4.459864E-08
vn 0.3950759 0.3879164 0.1636131
vn 0.2912803 0.4045105 0.291308
vn 0.3299114 0.4025747 0.2498507
vn 0.1635923 0.3879257 0.3950753
vn 0.3299114 0.4025747 0.2498507
vn 0.2912803 0.4045105 0.291308
vn 0.1636038 0.3879428 0.3950538
vn -0.05658169 0.4025683 0.4099642
vn 0.1635923 0.3879257 0.3950753
vt 0 0
vt 0 0
vt 0 0
vt 0 0
vt 0 0
vt 0 0
vt 0 0
vt 0 0
vt 0 0
vt 0 0
vt 0 0
vt 0 0
vt 0 0
vt 0 0
vt 0 0
vt 0 0
vt 0 0
vt 0 0
vt 0 0
vt 0 0
vt 0 0
vt 0 0
vt 0 0
vt 0 0
vt 0 0
vt 0 0
vt 0 0
vt 0 0
vt 0 0
vt 0 0
vt 0 0
vt 0 0
vt 0 0
vt 0 0
vt 0 0
vt 0 0
vt 0 0
vt 0 0
vt 0 0
vt 0 0
vt 0 0
vt 0 0
vt 0 0
vt 0 0
vt 0 0
vt 0 0
vt 0 0
vt 0 0
vt 0 0
vt 0 0
vt 0 0
vt 0 0
vt 0 0
vt 0 0
vt 0 0
vt 0 0
vt 0 0
vt 0 0
vt 0 0
vt 0 0
vt 0 0
vt 0 0
vt 0 0
vt 0 0
vt 0 0
vt 0 0
vt 0 0
vt 0 0
vt 0 0
vt 0 0
vt 0 0
vt 0 0
vt 0 0
vt 0 0
vt 0 0
vt 0 0
vt 0 0
vt 0 0
vt 0 0
vt 0 0
vt 0 0
vt 0 0
vt 0 0
vt 0 0
vt 0 0
vt 0 0
vt 0 0
vt 0 0
vt 0 0
vt 0 0
usemtl Material
f 3/3/3 2/2/2 1/1/1
f 6/6/6 5/5/5 4/4/4
f 9/9/9 8/8/8 7/7/7
f 12/12/12 11/11/11 10/10/10
f 15/15/15 14/14/14 13/13/13
f 18/18/18 17/17/17 16/16/16
f 21/21/21 20/20/20 19/19/19
f 24/24/24 23/23/23 22/22/22
f 27/27/27 26/26/26 25/25/25
f 30/30/30 29/29/29 28/28/28
f 33/33/33 32/32/32 31/31/31
f 36/36/36 35/35/35 34/34/34
f 39/39/39 38/38/38 37/37/37
f 42/42/42 41/41/41 40/40/40
f 45/45/45 44/44/44 43/43/43
f 48/48/48 47/47/47 46/46/46
f 51/51/51 50/50/50 49/49/49
f 54/54/54 53/53/53 52/52/52
f 57/57/57 56/56/56 55/55/55
f 60/60/60 59/59/59 58/58/58
f 63/63/63 62/62/62 61/61/61
f 66/66/66 65/65/65 64/64/64
f 69/69/69 68/68/68 67/67/67
f 72/72/72 71/71/71 70/70/70
f 75/75/75 74/74/74 73/73/73
f 78/78/78 77/77/77 76/76/76
f 81/81/81 80/80/80 79/79/79
f 84/84/84 83/83/83 82/82/82
f 87/87/87 86/86/86 85/85/85
f 90/90/90 89/89/89 88/88/88
